<svg xmlns="http://www.w3.org/2000/svg" xmlns:xlink="http://www.w3.org/1999/xlink" viewBox="0 0 819.77 902.15"><defs><style>.cls-1{fill:url(#linear-gradient);}.cls-2{fill:url(#linear-gradient-2);}.cls-3{fill:url(#linear-gradient-3);}.cls-4{fill:url(#linear-gradient-4);}.cls-5{fill:url(#linear-gradient-5);}.cls-6{fill:url(#linear-gradient-6);}.cls-7{fill:url(#linear-gradient-7);}.cls-8{fill:#fff;}.cls-9{fill:#4a90fd;}.cls-10{fill:#333;opacity:0.15;}.cls-11{opacity:0.25;}.cls-12{fill:url(#linear-gradient-8);}.cls-13{fill:url(#linear-gradient-9);}.cls-14{fill:url(#linear-gradient-10);}.cls-15{fill:url(#linear-gradient-11);}.cls-16{fill:url(#linear-gradient-12);}.cls-17{fill:url(#linear-gradient-13);}.cls-18{fill:url(#linear-gradient-14);}.cls-19{fill:url(#linear-gradient-15);}.cls-20{fill:url(#linear-gradient-16);}.cls-21{fill:url(#linear-gradient-17);}.cls-22{fill:url(#linear-gradient-18);}.cls-23{fill:url(#linear-gradient-19);}.cls-24{fill:url(#linear-gradient-20);}.cls-25{fill:url(#linear-gradient-21);}.cls-26{fill:url(#linear-gradient-22);}.cls-27{fill:url(#linear-gradient-23);}.cls-28{fill:url(#linear-gradient-24);}.cls-29{fill:url(#linear-gradient-25);}.cls-30{fill:url(#linear-gradient-26);}</style><linearGradient id="linear-gradient" x1="727.76" y1="250.74" x2="103.92" y2="742.64" gradientUnits="userSpaceOnUse"><stop offset="0" stop-color="#1a1a1a"/><stop offset="0.1" stop-color="#1a192a"/><stop offset="0.31" stop-color="#1b1743"/><stop offset="0.53" stop-color="#1b1556"/><stop offset="0.75" stop-color="#1b1460"/><stop offset="1" stop-color="#1b1464"/></linearGradient><linearGradient id="linear-gradient-2" x1="222.9" y1="820.35" x2="419.5" y2="273.92" gradientUnits="userSpaceOnUse"><stop offset="0" stop-color="aqua" stop-opacity="0"/><stop offset="0.16" stop-color="aqua" stop-opacity="0.01"/><stop offset="0.29" stop-color="aqua" stop-opacity="0.05"/><stop offset="0.41" stop-color="aqua" stop-opacity="0.12"/><stop offset="0.52" stop-color="aqua" stop-opacity="0.21"/><stop offset="0.63" stop-color="aqua" stop-opacity="0.33"/><stop offset="0.74" stop-color="aqua" stop-opacity="0.48"/><stop offset="0.84" stop-color="aqua" stop-opacity="0.66"/><stop offset="0.94" stop-color="aqua" stop-opacity="0.86"/><stop offset="1" stop-color="aqua"/></linearGradient><linearGradient id="linear-gradient-3" x1="212.05" y1="831.96" x2="320.43" y2="423.22" gradientUnits="userSpaceOnUse"><stop offset="0.01" stop-color="#00a99d" stop-opacity="0.1"/><stop offset="0.41" stop-color="#00a99d"/><stop offset="0.52" stop-color="#00a99d" stop-opacity="0.67"/><stop offset="0.73" stop-color="#00a99d" stop-opacity="0"/><stop offset="1" stop-color="#00a99d"/></linearGradient><linearGradient id="linear-gradient-4" x1="732.82" y1="1053.19" x2="951.94" y2="226.79" gradientTransform="matrix(-1, 0, 0, 1, 1087.2, 0)" gradientUnits="userSpaceOnUse"><stop offset="0.01" stop-color="#00a99d" stop-opacity="0"/><stop offset="0.05" stop-color="#00a99d" stop-opacity="0.07"/><stop offset="0.14" stop-color="#00a99d" stop-opacity="0.27"/><stop offset="0.25" stop-color="#00a99d" stop-opacity="0.58"/><stop offset="0.39" stop-color="#00a99d"/><stop offset="0.51" stop-color="#00a99d" stop-opacity="0.67"/><stop offset="0.73" stop-color="#00a99d" stop-opacity="0"/><stop offset="1" stop-color="#00a99d"/></linearGradient><linearGradient id="linear-gradient-5" x1="975.68" y1="1025.15" x2="975.68" y2="225.94" gradientTransform="matrix(-1, 0, 0, 1, 1087.2, 0)" gradientUnits="userSpaceOnUse"><stop offset="0" stop-color="#2e3192" stop-opacity="0"/><stop offset="0.01" stop-color="#2d3393" stop-opacity="0.02"/><stop offset="0.17" stop-color="#1554a9" stop-opacity="0.39"/><stop offset="0.29" stop-color="#0768b6" stop-opacity="0.61"/><stop offset="0.35" stop-color="#0170bb" stop-opacity="0.7"/><stop offset="0.4" stop-color="#0170bb" stop-opacity="0.67"/><stop offset="0.63" stop-color="#0071bc" stop-opacity="0.55"/><stop offset="0.78" stop-color="#0071bc" stop-opacity="0.5"/><stop offset="0.93" stop-color="#0071bc" stop-opacity="0.85"/><stop offset="1" stop-color="#0071bc"/></linearGradient><linearGradient id="linear-gradient-6" x1="905.6" y1="1025.15" x2="905.6" y2="225.88" xlink:href="#linear-gradient-5"/><linearGradient id="linear-gradient-7" x1="204.02" y1="850.43" x2="204.02" y2="420.59" gradientTransform="matrix(1, 0, 0, 1, 0, 0)" xlink:href="#linear-gradient-5"/><linearGradient id="linear-gradient-8" x1="31.64" y1="211.03" x2="20.02" y2="-73.87" gradientUnits="userSpaceOnUse"><stop offset="0" stop-color="#1b1464"/><stop offset="0.25" stop-color="#1b1460"/><stop offset="0.47" stop-color="#1b1556"/><stop offset="0.69" stop-color="#1b1743"/><stop offset="0.9" stop-color="#1a192a"/><stop offset="1" stop-color="#1a1a1a"/></linearGradient><linearGradient id="linear-gradient-9" x1="68.9" y1="209.51" x2="57.27" y2="-75.39" xlink:href="#linear-gradient-8"/><linearGradient id="linear-gradient-10" x1="92.51" y1="208.54" x2="80.89" y2="-76.35" xlink:href="#linear-gradient-8"/><linearGradient id="linear-gradient-11" x1="123.29" y1="207.29" x2="111.66" y2="-77.61" xlink:href="#linear-gradient-8"/><linearGradient id="linear-gradient-12" x1="162.56" y1="205.68" x2="150.93" y2="-79.21" xlink:href="#linear-gradient-8"/><linearGradient id="linear-gradient-13" x1="202.7" y1="204.05" x2="191.07" y2="-80.85" xlink:href="#linear-gradient-8"/><linearGradient id="linear-gradient-14" x1="239.68" y1="202.54" x2="228.06" y2="-82.36" xlink:href="#linear-gradient-8"/><linearGradient id="linear-gradient-15" x1="269.77" y1="201.31" x2="258.14" y2="-83.59" xlink:href="#linear-gradient-8"/><linearGradient id="linear-gradient-16" x1="350.32" y1="198.02" x2="338.69" y2="-86.88" xlink:href="#linear-gradient-8"/><linearGradient id="linear-gradient-17" x1="386.92" y1="196.53" x2="375.29" y2="-88.37" xlink:href="#linear-gradient-8"/><linearGradient id="linear-gradient-18" x1="429.35" y1="194.8" x2="417.72" y2="-90.1" xlink:href="#linear-gradient-8"/><linearGradient id="linear-gradient-19" x1="487.45" y1="192.42" x2="475.82" y2="-92.47" xlink:href="#linear-gradient-8"/><linearGradient id="linear-gradient-20" x1="567.06" y1="189.17" x2="555.43" y2="-95.72" xlink:href="#linear-gradient-8"/><linearGradient id="linear-gradient-21" x1="610.31" y1="187.41" x2="598.69" y2="-97.49" xlink:href="#linear-gradient-8"/><linearGradient id="linear-gradient-22" x1="680.77" y1="184.53" x2="669.14" y2="-100.36" xlink:href="#linear-gradient-8"/><linearGradient id="linear-gradient-23" x1="711.02" y1="183.3" x2="699.39" y2="-101.6" xlink:href="#linear-gradient-8"/><linearGradient id="linear-gradient-24" x1="742.81" y1="182" x2="731.18" y2="-102.9" xlink:href="#linear-gradient-8"/><linearGradient id="linear-gradient-25" x1="765.13" y1="181.09" x2="753.5" y2="-103.81" xlink:href="#linear-gradient-8"/><linearGradient id="linear-gradient-26" x1="789.62" y1="180.09" x2="777.99" y2="-104.81" xlink:href="#linear-gradient-8"/></defs><title>logoNab3Asset 1</title><g id="Layer_2" data-name="Layer 2"><g id="Layer_1-2" data-name="Layer 1"><g id="BG"><path class="cls-1" d="M810.58,506.45C808.43,671.69,706.65,812.29,563,871.81a401,401,0,0,1-89,25.21c-1.86.29-3.65.58-5.51.86A400.1,400.1,0,0,1,415.06,902c-3.36.14-6.8.14-10.24.07l-3.44-.07a399.62,399.62,0,0,1-92.25-12.68,394.67,394.67,0,0,1-92.26-36.75A401.47,401.47,0,0,1,33.58,639.1c-1.14-2.94-2.22-5.88-3.22-8.88-2.65-7.81-5.09-15.62-7.23-23.64Q20.22,596.05,18,585.09a389.24,389.24,0,0,1-8.74-83.73,11.74,11.74,0,0,1,0-1.57c-.07-1.15-.07-2.3-.07-3.51.07-5.23.21-10.53.5-15.69.43-7.31,1-14.47,1.72-21.63C32.8,255.47,206.34,98,415,100.69a399.26,399.26,0,0,1,241.45,84.87l1.86,1.51C752.49,261.49,812.23,377.31,810.58,506.45Z"/><path class="cls-2" d="M468.57,897.88A400.1,400.1,0,0,1,415.06,902c-1-1-1.93-1.94-2.86-2.94q-4.31-4.08-8.6-8c-.93-.86-1.79-1.72-2.72-2.51s-1.65-1.57-2.58-2.36l-7.16-6-3.22-2.79h-.08a6.33,6.33,0,0,0-.35-.65A249.58,249.58,0,0,0,369.72,856c-3.36-3.37-6.59-6.73-10.24-10l-5.16-4.94-5.87-5.3c-7.88-7.23-15.83-14.18-23.42-21.41-62-57.66-120.69-118-175-183.37a148,148,0,0,1-10.32-14c-3.08-4.59-6-9.32-8.81-14-3.22-5.45-6.37-11-9.31-16.69-2.15-4-4.22-8.09-6.16-12.25-1-2.08-1.93-4.08-2.86-6.16-2.87-6.16-5.45-12.46-7.81-18.84a182.66,182.66,0,0,1-6.45-18.62l-.07-.07c-.29-.93-.5-1.86-.72-2.79,0-.08-.07-.15-.07-.22-.64-2-1.21-4-1.72-6.09-.86-3-1.64-6.16-2.22-9.17V512A69.16,69.16,0,0,1,92,504.66c-.58-2.51-.93-5-1.29-7.6s-.79-5-1.08-7.52-.57-5.15-.78-7.66v-.07a183.07,183.07,0,0,1,.21-36,161.14,161.14,0,0,1,29.58-76.85l8.67-12.75c2.94-4.16,5.59-8.53,8.24-13s5.37-8.67,7.88-13.25a390.37,390.37,0,0,0,26.07-55.87,313.65,313.65,0,0,0,16.26-59.8,258.12,258.12,0,0,0,3.43-31.59l2.15-1.58a280.91,280.91,0,0,1-1.14,33.81,329.92,329.92,0,0,1-12.11,62,410.61,410.61,0,0,1-22.7,59.3c-2.22,4.66-4.8,9.39-7.09,14.19-2.51,4.65-4.87,9.45-7.67,14l-8,13.83a145.53,145.53,0,0,0-7.09,13,134.79,134.79,0,0,0-14,56.16v.07c-.07,1.64-.14,3.29-.14,4.94,0,2.51.07,5,.14,7.59a133.19,133.19,0,0,0,1.43,15,59.68,59.68,0,0,0,.94,6,10.07,10.07,0,0,0,.21,1.43v.07a216.62,216.62,0,0,0,5.52,22.64c1.14,3.79,2.36,7.45,3.72,11.17A243,243,0,0,0,134.22,542v.08c2.86,5.94,5.87,11.74,9.17,17.4,4.94,8.6,10.24,17.05,16,25.14,2.79,4.08,5.8,8,8.74,11.89a122.42,122.42,0,0,0,9,10.75c56.94,59.16,119,114.45,183.29,166.1,30.37,24.85,70.7,50.78,96.12,96A145.79,145.79,0,0,1,468.57,897.88Z"/><path class="cls-3" d="M415.06,902c-3.36.14-6.8.14-10.24.07l-3.44-.07a399.62,399.62,0,0,1-92.25-12.68l-6.09-5.8c-32.88-31.95-65.11-64.75-95.91-98.92S147.54,714.45,120.68,678c-7.23-9.81-14.76-19.91-21.77-30.8a202.56,202.56,0,0,1-16.19-28.65A159.22,159.22,0,0,1,71,583.87a142.71,142.71,0,0,1-2.5-36.52c1.57-23.5,9.38-45.56,20.27-65.47.14,2.51.43,5.08.78,7.66s.58,5.09,1.08,7.52a66.61,66.61,0,0,0,1.29,7.6A69.16,69.16,0,0,0,93.53,512v.07c.58,3,1.36,6.17,2.22,9.17.51,2.08,1.08,4.09,1.72,6.09,0,.07.07.14.07.22.29.93.51,1.86.79,2.79v.07a122.32,122.32,0,0,0-1.22,17.69,114.8,114.8,0,0,0,1.65,17.19,30.46,30.46,0,0,1,.5,3c.29,1,.5,1.94.72,2.94.29,1.29.64,2.58.93,3.87.22.64.43,1.36.65,2.07.35,1.22.64,2.37,1.07,3.51.64,2,1.36,4.09,2.15,6.09A109.63,109.63,0,0,0,109.72,598c1.15,2.3,2.29,4.52,3.58,6.74s2.44,4.29,3.8,6.44l.21.22c1.15,1.79,2.3,3.65,3.51,5.37a43.89,43.89,0,0,0,3.44,4.94c8.17,11.46,17.76,22.49,27.79,34a1309.1,1309.1,0,0,0,92,97.13c32.3,30.87,66.18,60.45,100.92,89.39l26.14,21.56,13.33,10.74,3.43,2.94h.08l3.22,2.79,7.16,6c.93.79,1.72,1.5,2.58,2.36s1.79,1.65,2.72,2.51q4.31,3.87,8.6,8C413.13,900.1,414.06,901,415.06,902Z"/><path class="cls-4" d="M114.09,482.49A208,208,0,0,1,126.46,461c2.83-4.64,6.13-9,9.22-13.5,3.3-4.74,6.75-9.38,9.84-14.23C170.93,395,188.09,352.54,198.7,309.2a466.08,466.08,0,0,0,11.18-65.65c2.07-22.05,3-44.21,1.24-66.21.31,22-2.16,44-5.72,65.7a470.43,470.43,0,0,1-15.46,64c-13.29,41.84-32.82,81.83-59.46,116.76-3.25,4.43-6.86,8.61-10.26,12.89-2.88,3.55-5.92,7.11-8.76,10.76A163.72,163.72,0,0,0,114.09,482.49Z"/><path class="cls-5" d="M98.79,565.3a109.24,109.24,0,0,0,2.73,12,134.4,134.4,0,0,0,11.75,27.46,176.1,176.1,0,0,0,11,17,112.06,112.06,0,0,1-2.63-35.4c-2.16-4-4.22-8.15-6.18-12.27-3.91-8.14-7.52-16.49-10.66-25A165.22,165.22,0,0,0,98.79,565.3Z"/><path class="cls-6" d="M123.32,516.3a250.06,250.06,0,0,0,10.87,25.76,157.23,157.23,0,0,1,8.24-15.3,234.07,234.07,0,0,1,18.09-25.66c3.4-4.23,6.7-8,10.41-12.37s7.37-8.61,10.72-13.14c27.56-36.12,43.74-78.84,51.58-121.87a409.6,409.6,0,0,0,6.49-65.23c.31-10.87.15-21.75-.21-32.62s-1.23-21.64-1.39-32.51c-.51,10.87-.31,21.69-.72,32.51s-.93,21.64-1.91,32.41A406.36,406.36,0,0,1,224.93,352c-10.41,41.59-28.75,81.37-56.58,113.31-3.4,4-7.06,7.84-10.77,11.6s-7.93,7.88-11.75,11.95a256.61,256.61,0,0,0-21.74,26.39Z"/><path class="cls-7" d="M309.13,889.36a394.67,394.67,0,0,1-92.26-36.75c-6.44-9-12.75-17.9-19-27A1294.36,1294.36,0,0,1,128.56,712.3c-10.67-18.91-22-39.54-28.87-62.32a8.81,8.81,0,0,1-.78-2.79c7,10.89,14.54,21,21.77,30.8,26.86,36.46,55.58,72.49,86.45,106.65s63,67,95.91,98.92Z"/></g><g id="logo"><rect class="cls-8" x="362.63" y="192.55" width="68.76" height="68.76" transform="translate(306.28 -221.27) rotate(48.8)"/><path class="cls-9" d="M726.05,642.08c-15.11,52.07-109,53-154.79,47.28,80-26,50.5-97.71,7.41-175.74-12-21.69-25-43.84-37-65.68a.3.3,0,0,1-.07-.23c-28.73-52.14-51.55-102.19-40-138.33,19.75-48.93,60.68-102,108.48-120.08-14.66,15.12-24.46,33.37-30.37,53.12a11.14,11.14,0,0,0-.53,1.72v.15c-10.77,37.86-5.16,78.48,14.14,112.82,8.53,15.19,18.11,30.08,25.89,45.49C655,471.28,696.28,538.09,724.41,610.28A49.8,49.8,0,0,1,726.05,642.08Z"/><path class="cls-9" d="M466,674.55c40.25-16.09,45-44,36.06-74.82-8.68-29.77-30.22-62.32-44.81-89.62-7.19-13.47-14.44-27-21.85-40.33a257.27,257.27,0,0,1-16.61-35.09c-24.84-66.21-2.47-115,76.09-164.36a126.73,126.73,0,0,0-13.47,21c-19,37.26-19.38,83.42,4.49,122.55,10.92,17.88,21.77,35.91,31.87,54.39,14.59,26.7,28.88,53.34,42.5,80.5,9.72,19.45,19.15,39.12,28,59.25C609.34,676.57,510.81,678.36,466,674.55Z"/><path class="cls-8" d="M382.33,365.2a7.93,7.93,0,0,1-.65,2.65,7.53,7.53,0,0,1-1.07,1.86.07.07,0,0,0-.07.07,7.36,7.36,0,0,1-.79.79,1,1,0,0,1-.36.29,85.48,85.48,0,0,0-10.74,10.81A83.42,83.42,0,0,0,350.38,429L336.27,641.39l-4.51,67.83a43.32,43.32,0,0,1-14.83,29.87l-81.29,71.12a23.18,23.18,0,0,1-31.44-1L33.58,639.1c-1.14-2.94-2.22-5.88-3.22-8.88-2.65-7.81-5.09-15.62-7.23-23.64Q20.22,596.05,18,585.09a389.24,389.24,0,0,1-8.74-83.73,11.74,11.74,0,0,1,0-1.57L232.34,732.07a14.07,14.07,0,0,0,19.7,1.07l1.22-1A14.6,14.6,0,0,0,258,722.4l18-270.75L380.32,359.4A8.11,8.11,0,0,1,382.33,365.2Z"/><path class="cls-8" d="M502.09,599.7l-12.47,11L445.57,649.2,387.7,699.84a15.5,15.5,0,0,1-24.07-4.66l-16.54-32.52-10.82-21.27-1.36-2.51L349,429a82.55,82.55,0,0,1,17.84-46.84c.14-.22.35-.43.5-.65a82.79,82.79,0,0,1,14.39-13.68,7.53,7.53,0,0,1-1.07,1.86.07.07,0,0,0-.07.07,7.36,7.36,0,0,1-.79.79c-.21.22-.43.5-.64.72-21.56,23.06-24,53.22-18.13,82.44a200.81,200.81,0,0,0,9.24,31.59q2.26,6,4.73,11.6a330.57,330.57,0,0,0,34.17,59.95l6-90.75.5-7.95,3.16-23.49a259.25,259.25,0,0,0,16.61,35.09c7.38,13.33,14.69,26.86,21.85,40.33C471.86,537.39,493.35,570,502.09,599.7Z"/><path class="cls-10" d="M361,453.73,348.52,641.39l-1.43,21.27-10.82-21.27-1.36-2.51L349,429a82.55,82.55,0,0,1,17.84-46.84l12.32-10.89C357.55,394.35,355.11,424.51,361,453.73Z"/><path class="cls-11" d="M502.09,599.7l-12.47,11c-8.88-29.51-30.08-61.52-44.48-88.46-7.16-13.46-14.39-27-21.84-40.32-3-5.37-5.73-10.6-8.17-15.76l.5-7.95,3.16-23.49a259.25,259.25,0,0,0,16.61,35.09c7.38,13.33,14.69,26.86,21.85,40.33C471.86,537.39,493.35,570,502.09,599.7Z"/></g><g id="T"><path class="cls-12" d="M1.54,200.29a6.54,6.54,0,0,1,4.58-2.44A6.42,6.42,0,0,1,11,199.33a6.41,6.41,0,0,1,2.39,4.52,6.55,6.55,0,0,1-1.54,5,6.4,6.4,0,0,1-4.52,2.38,6.4,6.4,0,0,1-4.89-1.48A6.35,6.35,0,0,1,0,205.16,6.5,6.5,0,0,1,1.54,200.29Zm9.76-11.82A6.53,6.53,0,0,1,15.88,186a6.62,6.62,0,0,1,7.27,6,6.57,6.57,0,0,1-1.54,5,6.3,6.3,0,0,1-4.49,2.35,6.53,6.53,0,0,1-4.86-1.51,6.49,6.49,0,0,1-2.45-4.52A6.37,6.37,0,0,1,11.3,188.47Zm17.06,5.3L51.1,212.53a1.16,1.16,0,0,0,.88.28,1.38,1.38,0,0,0,.92-.58L54.75,210l8.52,7L59,222.24a11.34,11.34,0,0,1-7.72,4,13.76,13.76,0,0,1-3.19,10.46l-.06.07-.11.13a15.45,15.45,0,0,1-14,5.86,22.41,22.41,0,0,1-12.75-5.42,21.45,21.45,0,0,1-8.22-14.55,18,18,0,0,1,4.27-13.92,22,22,0,0,1,6.9-5.53l.11-4.45Zm1.53,18.48A16.25,16.25,0,0,0,27,214.89a7.3,7.3,0,0,0-1.78,6.2,10.81,10.81,0,0,0,4.12,6.18,10.37,10.37,0,0,0,6.92,2.65,7.66,7.66,0,0,0,6-3A16.71,16.71,0,0,0,44.17,224Z"/><path class="cls-13" d="M53.89,170.57l19.82,19.19a3.48,3.48,0,0,0,.61.47l3-3.07,8,7.68-1.86,1.91-5.45,0-.17.19a10.16,10.16,0,0,1-3,8.71L62.36,218.48l-7.94-7.69L63.89,201a1.55,1.55,0,0,0,.53-1.28,1.63,1.63,0,0,0-.56-1.14L44.71,180.05Zm15.77,46A6.73,6.73,0,1,1,79.32,226a6.73,6.73,0,0,1-9.44.15,6.52,6.52,0,0,1-2.08-4.76A6.43,6.43,0,0,1,69.66,216.61Zm10.67-11a6.71,6.71,0,0,1,9.57-.15,6.43,6.43,0,0,1,2,4.69A6.59,6.59,0,0,1,90,215a6.3,6.3,0,0,1-4.66,2A6.5,6.5,0,0,1,80.6,215a6.59,6.59,0,0,1-2.11-4.72A6.32,6.32,0,0,1,80.33,205.59Z"/><path class="cls-14" d="M64.7,135a6.52,6.52,0,0,1,4.82-1.62,6.39,6.39,0,0,1,4.61,2.31,6.72,6.72,0,0,1-.69,9.42,6.33,6.33,0,0,1-4.88,1.62,6.73,6.73,0,0,1-6.17-7.13A6.42,6.42,0,0,1,64.7,135Zm11.6-10a6.44,6.44,0,0,1,4.82-1.62,6.37,6.37,0,0,1,4.6,2.3,6.69,6.69,0,0,1-5.56,11.05A6.71,6.71,0,0,1,74,129.58,6.37,6.37,0,0,1,76.3,125ZM88,177.28a33.13,33.13,0,0,1-4.14-2.43,22.62,22.62,0,0,1-4.5-4,18.14,18.14,0,0,1-4.6-10.42q-.8-9.84,7.36-16.9,5.84-5,12.34-5.12a14.75,14.75,0,0,1,11.82,5.41l9,10.44a10.57,10.57,0,0,1,2.61,6.68,10.31,10.31,0,0,1-3.7,8.3L83.5,195.78l-7.23-8.35Zm8.36-24.79a4.76,4.76,0,0,0-4.25-1.77,5,5,0,0,0-2.75,1.14,6.17,6.17,0,0,0-2,6.84A12.79,12.79,0,0,0,90,163.21q3.77,4.33,8,3.85a10.37,10.37,0,0,0,4.81-2.56l1.36-1.18a1.06,1.06,0,0,0,.12-1.69Z"/><path class="cls-15" d="M108.3,96.88,142.22,144,140,152.32l-5.29,3.81L97.59,104.59Z"/><path class="cls-16" d="M152,94.47l15.21,23.94,3.61-2.3,5.93,9.33L173,127.83a21.16,21.16,0,0,1,1.13,17.75A24.83,24.83,0,0,1,164,157.65q-.8.49-2.58,1.53l-8.18-2.82-2.44-3.83a4.74,4.74,0,0,0,.89-.36,21.1,21.1,0,0,0,3.56-1.75c3.93-2.64,6.26-5.54,7-8.69s-.2-6.87-2.78-10.92l-18.56-29.22Z"/><path class="cls-17" d="M174.74,99.7q-1.45-9.84,3.7-17.27a26.34,26.34,0,0,1,10.24-8.78,22.39,22.39,0,0,1,13-2.39,24.24,24.24,0,0,1,14.73,7.2l.29,2.84A30.08,30.08,0,0,0,214,87.41a30.79,30.79,0,0,0-1.56,7l10.39-5.29,5,9.85-17.94,9.14a5.38,5.38,0,0,1-4.45,0l-.3.16a5.6,5.6,0,0,1-2.81,3.73l-27.56,14-5-9.85L190,105.79a24.16,24.16,0,0,0-6.38-2.71,25,25,0,0,0-6.71-1.48ZM204,84.19a8.05,8.05,0,0,0-6.29-1.79,12.58,12.58,0,0,0-4.59,1.37,14.34,14.34,0,0,0-4.79,3.79,7.29,7.29,0,0,0-1.73,5.49,24.94,24.94,0,0,1,6.49,2,26.3,26.3,0,0,1,7.16,3.85l.45-.23A24.8,24.8,0,0,1,202,90,23.89,23.89,0,0,1,204,84.19Z"/><path class="cls-18" d="M230.31,32.68,249,79.85a10.57,10.57,0,0,1,.26,7.17,10.41,10.41,0,0,1-6.32,6.64l-16.65,6.59L222.2,90l13.15-5.2a1.4,1.4,0,0,0,.7-.55,1.15,1.15,0,0,0,0-1L218,37.53Z"/><path class="cls-19" d="M261.17,22.34,278.76,77.7,274,84.87l-6.21,2L248.59,26.33Z"/><path class="cls-20" d="M334.26,60.66a13,13,0,0,1-4.91-4.18,21.9,21.9,0,0,1-3.63-8.79q-1.49-9.48,3.83-15.35,4.51-5,12.64-6.23a39.16,39.16,0,0,1,7.95-.21l1.6,10.24a33.9,33.9,0,0,0-5.69.2c-3,.48-5.13,1.5-6.24,3.06s-1.42,3.93-.92,7.08A8.74,8.74,0,0,0,342,52.37a7.71,7.71,0,0,0,6.19,1.33,6,6,0,0,0,1-.25,81.8,81.8,0,0,1,11.28-2.72c.5-.08,1.27-.17,2.3-.28l.33-.05.71,4.49-4.22,7.34a54.64,54.64,0,0,0-11,3.73,52.27,52.27,0,0,0-15,10.16l-7.92-9A82,82,0,0,1,334.26,60.66Z"/><path class="cls-21" d="M384.48,0l4.39,57.93-6.25,5.88-6.49.5L371.33,1Z"/><path class="cls-22" d="M422.21,60.28a18.43,18.43,0,0,1-14.63-6.47,19.21,19.21,0,0,1-4.75-13.13q0-9.68,5.1-14.89A20.27,20.27,0,0,1,423,19.84a19.81,19.81,0,0,1,11.13,3,14.68,14.68,0,0,1,6.81,13l-.05,13.37h2.75l0,11.05H440.8q-1.05,9.42-7.59,14.72a23.82,23.82,0,0,1-9.78,4.76,32.65,32.65,0,0,1-8.32,1,30.2,30.2,0,0,1-3.93-.27l-5.72-7V68.88a35,35,0,0,0,7.54.88q12,0,14.26-9.46ZM427.77,36a4.83,4.83,0,0,0-4.87-5.07,6.16,6.16,0,0,0-5.1,2.42,10.17,10.17,0,0,0-1.95,6.46q0,9.44,9.31,9.46h2.57Z"/><path class="cls-23" d="M473.47,34.06Q486,24,500.65,25.89q10.53,1.39,16.66,8.68a19.2,19.2,0,0,1,4.59,15.64l-1.12,8.5a10.63,10.63,0,0,1-11.93,9.14L441.41,59l1.45-11,15.28,2,3.72-28.11,13.08,1.72Zm35.15,15.87a11.83,11.83,0,0,0-1.1-6.71q-3.16-5.43-10-6.34a20.93,20.93,0,0,0-13.18,2.93,41,41,0,0,0-13.15,11.92l35.33,4.66q1.27.16,1.44-1ZM497.36,7.57a6.51,6.51,0,0,1,4.42,2.53,6.38,6.38,0,0,1,1.33,5,6.41,6.41,0,0,1-2.57,4.41,6.66,6.66,0,0,1-9.38-1.24,6.71,6.71,0,0,1,1.23-9.34A6.4,6.4,0,0,1,497.36,7.57Z"/><path class="cls-24" d="M591.68,26.41,577.6,75.13a10.26,10.26,0,0,1-4.82,6.19,10,10,0,0,1-8.34,1.07l-30.37-8.78-3.33-7.92,1.22-4.2,18.1,5.24-2-42,11.6,3.36,2,42,2.22.64a1.26,1.26,0,0,0,1-.15,1,1,0,0,0,.47-.67L579,22.74Z"/><path class="cls-25" d="M623.06,38.45l-21.17,54.1-8.2,2.59-6.06-2.37,23.14-59.13Z"/><path class="cls-26" d="M698.08,98.55l-14.78,25.5a1.14,1.14,0,0,0-.14.91,1.42,1.42,0,0,0,.72.81l2.52,1.46-5.55,9.57L675,133.4a11.3,11.3,0,0,1-5.17-7A13.83,13.83,0,0,1,659,125l-.08,0-.15-.09a15.47,15.47,0,0,1-8.07-12.9,22.41,22.41,0,0,1,3.26-13.47A21.44,21.44,0,0,1,667,88,18,18,0,0,1,681.38,90a22.17,22.17,0,0,1,6.58,5.9l4.41-.61Zm-18,4.53A15.86,15.86,0,0,0,677,100.7a7.26,7.26,0,0,0-6.4-.74A10.78,10.78,0,0,0,665.2,105a10.36,10.36,0,0,0-1.48,7.26,7.69,7.69,0,0,0,3.92,5.44,16.14,16.14,0,0,0,3.18,1.35Zm7.15-29.92a6.52,6.52,0,0,1,3.17,4.11,6.62,6.62,0,0,1-4.73,8.15,6.54,6.54,0,0,1-5.14-.7,6.68,6.68,0,1,1,6.7-11.56Zm13.27,7.69A6.53,6.53,0,0,1,703.68,85a6.68,6.68,0,0,1-9.86,7.45,6.22,6.22,0,0,1-3.05-4,6.76,6.76,0,0,1,4.74-8.19A6.34,6.34,0,0,1,700.52,80.85Z"/><path class="cls-27" d="M737.65,102l-28.94,41.66a10.54,10.54,0,0,1-5.83,4.19,10.37,10.37,0,0,1-9-1.58L679.15,136l6.3-9.08L697.07,135a1.4,1.4,0,0,0,.85.27,1.14,1.14,0,0,0,.89-.53l28-40.32Z"/><path class="cls-28" d="M763.26,121.8l-30.61,38.38a2.18,2.18,0,0,0-.26.46l0,.12a1,1,0,0,0,.42,1.11l2.48,2-6.89,8.64L723,168.16a10.42,10.42,0,0,1-3.89-6.94,10.26,10.26,0,0,1,2.21-8L753,113.57Z"/><path class="cls-29" d="M801.32,154.09l-8.46,9.1-17.09-3.26a36.9,36.9,0,0,1,1.93,19.57A29.07,29.07,0,0,1,770.43,195a11.93,11.93,0,0,1-7.88,4.08,9.94,9.94,0,0,1-7.89-2.84l-27.24-25.31,7.53-8.1,24.41,22.69a1.09,1.09,0,0,0,1.75-.12q4.54-4.89,3.87-13.6a28.54,28.54,0,0,0-7.28-16.95.77.77,0,0,1,0-1.15l7.29-7.85Z"/><path class="cls-30" d="M786.86,231a22.22,22.22,0,0,1-4-3.56q-5.67-6.55-3.91-15.65a21.21,21.21,0,0,1,7.17-12.55q6.61-5.72,14.36-5.39,8.18.4,14.16,7.34a19.26,19.26,0,0,1,5,11.06,14.47,14.47,0,0,1-5.38,13l-16,13.84-.13.12q-8.74,7.56-18.77,5.8-8.46-1.4-15-9l-1.33-1.8,1.59-8.51,3.44-3a6.48,6.48,0,0,0,.48.82,21.08,21.08,0,0,0,2.26,3.26q4.89,5.4,9.86,5.64A12.07,12.07,0,0,0,786.86,231Zm18.75-15.64a5,5,0,0,0,1.83-3.51,4.6,4.6,0,0,0-1.2-3.49A6.26,6.26,0,0,0,801.1,206a10.26,10.26,0,0,0-6.2,2.86,11.94,11.94,0,0,0-4.21,6.59,7,7,0,0,0,1.64,6.28,14,14,0,0,0,3,2.53Z"/></g></g></g></svg>